<svg xmlns="http://www.w3.org/2000/svg" width="40.141" height="38.746" viewBox="0 0 40.141 38.746"><g transform="translate(0 -8.462)"><path d="M38.152,22.732a5.513,5.513,0,0,0-3.57-1.335H25.918V15.139c0-2.63-.767-4.526-2.284-5.639-2.4-1.764-5.7-.758-5.845-.709a.99.99,0,0,0-.692.94v7a6.913,6.913,0,0,1-3.24,5.762,12.8,12.8,0,0,1-3.421,1.715l-.239.058a2.033,2.033,0,0,0-1.756-1.006H2.036A2.041,2.041,0,0,0,0,25.3V44.124A2.041,2.041,0,0,0,2.036,46.16H8.458a2.045,2.045,0,0,0,1.566-.734A5.6,5.6,0,0,0,14.1,47.207h17.13c3.784,0,6.2-1.978,6.628-5.441l2.218-13.759A5.8,5.8,0,0,0,38.152,22.732ZM8.508,44.124a.056.056,0,0,1-.058.058H2.036a.056.056,0,0,1-.058-.058V25.3a.056.056,0,0,1,.058-.058H8.458a.056.056,0,0,1,.058.058V44.124Zm29.6-16.43L35.893,41.478a.09.09,0,0,1-.008.041c-.305,2.465-1.871,3.718-4.666,3.718H14.089A3.626,3.626,0,0,1,10.535,42.2a1.318,1.318,0,0,0-.041-.173V26.227l.429-.1c.016,0,.025-.008.041-.008a14.308,14.308,0,0,0,4.006-1.978,8.919,8.919,0,0,0,4.114-7.411V10.523a4.6,4.6,0,0,1,3.388.577c.973.717,1.467,2.077,1.467,4.039v7.238a.992.992,0,0,0,.989.989h9.653a3.521,3.521,0,0,1,2.284.866A3.77,3.77,0,0,1,38.1,27.694Z"/></g></svg>