<svg xmlns="http://www.w3.org/2000/svg" width="72" height="72" viewBox="0 0 72 72"><g transform="translate(-1597 -2274)"><g transform="translate(1597 2274)" fill="none" stroke="#272727" stroke-width="1"><circle cx="36" cy="36" r="36" stroke="none"/><circle cx="36" cy="36" r="35.5" fill="none"/></g><path d="M20.967,42.323a11.052,11.052,0,0,0,0,22.1,11.052,11.052,0,0,0,0-22.1Zm0,18.232a7.185,7.185,0,1,1,7.012-7.183,7.112,7.112,0,0,1-7.012,7.183ZM34.708,41.871a2.516,2.516,0,1,1-2.516-2.577A2.541,2.541,0,0,1,34.708,41.871Zm7.143,2.616c-.16-3.452-.929-6.51-3.4-9.029S33.01,32.15,29.64,31.976c-3.473-.2-13.882-.2-17.355,0-3.36.163-6.345.952-8.814,3.471S.242,41.025.073,44.477c-.2,3.558-.2,14.222,0,17.78.16,3.452.929,6.51,3.4,9.029s5.444,3.308,8.814,3.481c3.473.2,13.882.2,17.355,0,3.37-.163,6.355-.952,8.814-3.481s3.229-5.577,3.4-9.029C42.049,58.7,42.049,48.044,41.851,44.487ZM37.365,66.074a7.188,7.188,0,0,1-4,4.1c-2.769,1.125-9.339.865-12.4.865s-9.64.25-12.4-.865a7.188,7.188,0,0,1-4-4.1c-1.1-2.837-.845-9.568-.845-12.7s-.244-9.875.845-12.7a7.188,7.188,0,0,1,4-4.1c2.769-1.125,9.339-.865,12.4-.865s9.64-.25,12.4.865a7.188,7.188,0,0,1,4,4.1c1.1,2.837.845,9.568.845,12.7S38.463,63.247,37.365,66.074Z" transform="translate(1612.075 2256.175)" fill="#272727"/></g></svg>