<svg xmlns="http://www.w3.org/2000/svg" width="72" height="72" viewBox="0 0 72 72"><g transform="translate(-1508 -2274)"><g transform="translate(1508 2274)" fill="none" stroke="#272727" stroke-width="1"><circle cx="36" cy="36" r="36" stroke="none"/><circle cx="36" cy="36" r="35.5" fill="none"/></g><path d="M38,17.749A17.762,17.762,0,0,1,27.617,14.43V29.542A13.744,13.744,0,1,1,15.76,15.923v7.6a6.31,6.31,0,1,0,4.416,6.019V0h7.441a10.245,10.245,0,0,0,.157,1.875h0a10.331,10.331,0,0,0,4.558,6.783A10.268,10.268,0,0,0,38,10.361Z" transform="translate(1524.872 2288)" fill="#272727"/></g></svg>