<svg xmlns="http://www.w3.org/2000/svg" xmlns:xlink="http://www.w3.org/1999/xlink" width="590.978" height="376.275" viewBox="0 0 590.978 376.275"><defs><clipPath id="a"><path d="M893.864,806.743a9.679,9.679,0,1,1,9.679-9.679,9.679,9.679,0,0,1-9.679,9.679m-44.27-66.193-42.613,8.2,24.455,2.289h30.7l-10.484,10.482h-38.38l-55.762,7.654,37.6,2.83h46.048l-10.484,10.482H776.96l-72.666,8.192,54.511,2.289h61.4l-10.482,10.484H740.647l-87.707,8.2,69.539,2.289H799.24l-10.484,10.482H704.332l-95.492,5.241,95.494,5.244H788.75l10.484,10.484H722.492l-69.552,2.284,87.7,8.2H809.71l10.482,10.484H758.808l-54.514,2.284,72.672,8.2h53.719l10.484,10.482H795.123l-37.394,2.952,55.549,7.53h38.38l10.484,10.484h-30.7L806.98,910.57l42.616,8.2H958.54l42.616-8.2L976.7,908.283H946L956.486,897.8h38.38l55.549-7.53-37.394-2.952H966.968l10.484-10.482h53.719l72.672-8.2-54.514-2.281H987.936l10.482-10.484h69.069l87.7-8.2-69.544-2.284H1008.9l10.484-10.484H1103.8l95.494-5.244-95.492-5.241h-84.418L1008.9,813.935h76.761l69.539-2.289-87.7-8.2H998.418l-10.482-10.484h61.4l54.508-2.292-72.666-8.192H977.452L966.968,772h46.048l37.607-2.83-55.773-7.654H956.47l-10.484-10.482h30.7l24.453-2.289-42.613-8.2Zm-17.047,89.107A71.521,71.521,0,1,1,904.07,901.18,71.521,71.521,0,0,1,832.547,829.657Zm71.523-52.2a52.189,52.189,0,1,0,44.756,25.323,21.107,21.107,0,0,1-33.575-24.12,52.567,52.567,0,0,0-11.182-1.2Z" transform="translate(-608.84 -740.55)" fill="#c5a47e"/></clipPath></defs><g transform="translate(-591.309 -740.55)"><path d="M893.864,806.743a9.679,9.679,0,1,1,9.679-9.679,9.679,9.679,0,0,1-9.679,9.679m-44.27-66.193-42.613,8.2,24.455,2.289h30.7l-10.484,10.482h-38.38l-55.762,7.654,37.6,2.83h46.048l-10.484,10.482H776.96l-72.666,8.192,54.511,2.289h61.4l-10.482,10.484H740.647l-87.707,8.2,69.539,2.289H799.24l-10.484,10.482H704.332l-95.492,5.241,95.494,5.244H788.75l10.484,10.484H722.492l-69.552,2.284,87.7,8.2H809.71l10.482,10.484H758.808l-54.514,2.284,72.672,8.2h53.719l10.484,10.482H795.123l-37.394,2.952,55.549,7.53h38.38l10.484,10.484h-30.7L806.98,910.57l42.616,8.2H958.54l42.616-8.2L976.7,908.283H946L956.486,897.8h38.38l55.549-7.53-37.394-2.952H966.968l10.484-10.482h53.719l72.672-8.2-54.514-2.281H987.936l10.482-10.484h69.069l87.7-8.2-69.544-2.284H1008.9l10.484-10.484H1103.8l95.494-5.244-95.492-5.241h-84.418L1008.9,813.935h76.761l69.539-2.289-87.7-8.2H998.418l-10.482-10.484h61.4l54.508-2.292-72.666-8.192H977.452L966.968,772h46.048l37.607-2.83-55.773-7.654H956.47l-10.484-10.482h30.7l24.453-2.289-42.613-8.2Zm-17.047,89.107A71.521,71.521,0,1,1,904.07,901.18,71.521,71.521,0,0,1,832.547,829.657Zm71.523-52.2a52.189,52.189,0,1,0,44.756,25.323,21.107,21.107,0,0,1-33.575-24.12,52.567,52.567,0,0,0-11.182-1.2Z" transform="translate(-17.531)" fill="#c5a47e" fill-rule="evenodd"/><text transform="translate(618.309 1065.922)" fill="#252525" font-size="161" font-family="Arial-BoldMT, Arial" font-weight="700"><tspan x="0" y="0">MAGIC</tspan></text><text transform="translate(739.309 1108.825)" fill="#252525" font-size="38" font-family="ArialMT, Arial"><tspan x="0" y="0">PHOTOGRAPHY</tspan></text><path d="M1437.1,1431.856c-25.647.611-51.295.932-76.942,1.149l-9.619.086-9.617.057-19.234.1-38.47.081-38.472-.076-19.236-.105-9.617-.054-9.617-.086c-25.647-.216-51.295-.541-76.942-1.154,25.647-.616,51.295-.938,76.942-1.154l9.617-.087,9.617-.054,19.236-.105,38.472-.076,38.47.081,19.236.1,9.617.057,9.619.086C1385.793,1430.923,1411.44,1431.245,1437.1,1431.856Z" transform="translate(-396.885 -503.379)" fill="#8c8686"/></g></svg>